<mxfile host="app.diagrams.net" agent="Mozilla/5.0 (Windows NT 10.0; Win64; x64) AppleWebKit/537.36 (KHTML, like Gecko) Chrome/131.0.0.0 Safari/537.36" version="25.0.3">
  <diagram name="Page-1" id="HGCCcsvrsybB-u4pb52O">
    <mxGraphModel dx="1050" dy="522" grid="1" gridSize="10" guides="1" tooltips="1" connect="1" arrows="1" fold="1" page="1" pageScale="1" pageWidth="850" pageHeight="1100" math="0" shadow="0">
      <root>
        <mxCell id="0" />
        <mxCell id="1" parent="0" />
        <mxCell id="SGzPiQksyXbseqrnPBhw-1" value="aPortableFreezer:" style="text;html=1;align=center;verticalAlign=middle;resizable=0;points=[];autosize=1;strokeColor=none;fillColor=none;" vertex="1" parent="1">
          <mxGeometry x="100" y="208" width="120" height="30" as="geometry" />
        </mxCell>
        <mxCell id="SGzPiQksyXbseqrnPBhw-2" value="idle" style="text;html=1;align=center;verticalAlign=middle;resizable=0;points=[];autosize=1;strokeColor=none;fillColor=none;" vertex="1" parent="1">
          <mxGeometry x="246" y="264" width="40" height="30" as="geometry" />
        </mxCell>
        <mxCell id="SGzPiQksyXbseqrnPBhw-3" value="check water level" style="text;html=1;align=center;verticalAlign=middle;resizable=0;points=[];autosize=1;strokeColor=none;fillColor=none;" vertex="1" parent="1">
          <mxGeometry x="206" y="223" width="120" height="30" as="geometry" />
        </mxCell>
        <mxCell id="SGzPiQksyXbseqrnPBhw-4" value="freezing" style="text;html=1;align=center;verticalAlign=middle;resizable=0;points=[];autosize=1;strokeColor=none;fillColor=none;" vertex="1" parent="1">
          <mxGeometry x="228" y="184" width="70" height="30" as="geometry" />
        </mxCell>
        <mxCell id="SGzPiQksyXbseqrnPBhw-5" value="water frozen" style="text;html=1;align=center;verticalAlign=middle;resizable=0;points=[];autosize=1;strokeColor=none;fillColor=none;" vertex="1" parent="1">
          <mxGeometry x="218" y="145" width="90" height="30" as="geometry" />
        </mxCell>
        <mxCell id="SGzPiQksyXbseqrnPBhw-6" value="" style="endArrow=none;html=1;rounded=0;" edge="1" parent="1">
          <mxGeometry width="50" height="50" relative="1" as="geometry">
            <mxPoint x="320" y="280" as="sourcePoint" />
            <mxPoint x="360" y="280" as="targetPoint" />
          </mxGeometry>
        </mxCell>
        <mxCell id="SGzPiQksyXbseqrnPBhw-7" value="pressed &quot;Start&quot; button" style="text;html=1;align=center;verticalAlign=middle;resizable=0;points=[];autosize=1;strokeColor=none;fillColor=none;" vertex="1" parent="1">
          <mxGeometry x="297" y="284" width="140" height="30" as="geometry" />
        </mxCell>
        <mxCell id="SGzPiQksyXbseqrnPBhw-8" value="" style="endArrow=none;html=1;rounded=0;" edge="1" parent="1">
          <mxGeometry width="50" height="50" relative="1" as="geometry">
            <mxPoint x="360" y="280" as="sourcePoint" />
            <mxPoint x="360" y="240" as="targetPoint" />
          </mxGeometry>
        </mxCell>
        <mxCell id="SGzPiQksyXbseqrnPBhw-9" value="" style="endArrow=none;html=1;rounded=0;" edge="1" parent="1">
          <mxGeometry width="50" height="50" relative="1" as="geometry">
            <mxPoint x="360" y="240" as="sourcePoint" />
            <mxPoint x="400" y="240" as="targetPoint" />
          </mxGeometry>
        </mxCell>
        <mxCell id="SGzPiQksyXbseqrnPBhw-10" value="[water within&amp;nbsp;&lt;div&gt;operational range]&lt;/div&gt;" style="text;html=1;align=center;verticalAlign=middle;resizable=0;points=[];autosize=1;strokeColor=none;fillColor=none;" vertex="1" parent="1">
          <mxGeometry x="353" y="237" width="120" height="40" as="geometry" />
        </mxCell>
        <mxCell id="SGzPiQksyXbseqrnPBhw-11" value="" style="endArrow=none;html=1;rounded=0;" edge="1" parent="1">
          <mxGeometry width="50" height="50" relative="1" as="geometry">
            <mxPoint x="400" y="240" as="sourcePoint" />
            <mxPoint x="400" y="200" as="targetPoint" />
          </mxGeometry>
        </mxCell>
        <mxCell id="SGzPiQksyXbseqrnPBhw-12" value="" style="endArrow=none;html=1;rounded=0;" edge="1" parent="1">
          <mxGeometry width="50" height="50" relative="1" as="geometry">
            <mxPoint x="400" y="200" as="sourcePoint" />
            <mxPoint x="520" y="200" as="targetPoint" />
          </mxGeometry>
        </mxCell>
        <mxCell id="SGzPiQksyXbseqrnPBhw-13" value="{&amp;lt;5min}" style="text;html=1;align=center;verticalAlign=middle;resizable=0;points=[];autosize=1;strokeColor=none;fillColor=none;" vertex="1" parent="1">
          <mxGeometry x="430" y="175" width="60" height="30" as="geometry" />
        </mxCell>
        <mxCell id="SGzPiQksyXbseqrnPBhw-14" value="" style="endArrow=none;html=1;rounded=0;" edge="1" parent="1">
          <mxGeometry width="50" height="50" relative="1" as="geometry">
            <mxPoint x="520" y="200" as="sourcePoint" />
            <mxPoint x="520" y="160" as="targetPoint" />
          </mxGeometry>
        </mxCell>
        <mxCell id="SGzPiQksyXbseqrnPBhw-15" value="" style="endArrow=none;html=1;rounded=0;" edge="1" parent="1">
          <mxGeometry width="50" height="50" relative="1" as="geometry">
            <mxPoint x="520" y="160" as="sourcePoint" />
            <mxPoint x="600" y="160" as="targetPoint" />
          </mxGeometry>
        </mxCell>
        <mxCell id="SGzPiQksyXbseqrnPBhw-16" value="" style="endArrow=none;html=1;rounded=0;" edge="1" parent="1">
          <mxGeometry width="50" height="50" relative="1" as="geometry">
            <mxPoint x="640" y="320" as="sourcePoint" />
            <mxPoint x="230" y="320" as="targetPoint" />
          </mxGeometry>
        </mxCell>
        <mxCell id="SGzPiQksyXbseqrnPBhw-17" value="" style="endArrow=none;html=1;rounded=0;" edge="1" parent="1">
          <mxGeometry width="50" height="50" relative="1" as="geometry">
            <mxPoint x="320" y="325" as="sourcePoint" />
            <mxPoint x="320" y="315" as="targetPoint" />
          </mxGeometry>
        </mxCell>
        <mxCell id="SGzPiQksyXbseqrnPBhw-19" value="" style="endArrow=none;html=1;rounded=0;" edge="1" parent="1">
          <mxGeometry width="50" height="50" relative="1" as="geometry">
            <mxPoint x="360" y="325" as="sourcePoint" />
            <mxPoint x="360" y="315" as="targetPoint" />
          </mxGeometry>
        </mxCell>
        <mxCell id="SGzPiQksyXbseqrnPBhw-20" value="" style="endArrow=none;html=1;rounded=0;" edge="1" parent="1">
          <mxGeometry width="50" height="50" relative="1" as="geometry">
            <mxPoint x="400" y="325" as="sourcePoint" />
            <mxPoint x="400" y="315" as="targetPoint" />
          </mxGeometry>
        </mxCell>
        <mxCell id="SGzPiQksyXbseqrnPBhw-21" value="" style="endArrow=none;html=1;rounded=0;" edge="1" parent="1">
          <mxGeometry width="50" height="50" relative="1" as="geometry">
            <mxPoint x="520" y="325" as="sourcePoint" />
            <mxPoint x="520" y="315" as="targetPoint" />
          </mxGeometry>
        </mxCell>
        <mxCell id="SGzPiQksyXbseqrnPBhw-22" value="t1" style="text;html=1;align=center;verticalAlign=middle;resizable=0;points=[];autosize=1;strokeColor=none;fillColor=none;" vertex="1" parent="1">
          <mxGeometry x="305" y="320" width="30" height="30" as="geometry" />
        </mxCell>
        <mxCell id="SGzPiQksyXbseqrnPBhw-23" value="t2" style="text;html=1;align=center;verticalAlign=middle;resizable=0;points=[];autosize=1;strokeColor=none;fillColor=none;" vertex="1" parent="1">
          <mxGeometry x="344" y="320" width="30" height="30" as="geometry" />
        </mxCell>
        <mxCell id="SGzPiQksyXbseqrnPBhw-24" value="t3" style="text;html=1;align=center;verticalAlign=middle;resizable=0;points=[];autosize=1;strokeColor=none;fillColor=none;" vertex="1" parent="1">
          <mxGeometry x="386" y="319" width="30" height="30" as="geometry" />
        </mxCell>
        <mxCell id="SGzPiQksyXbseqrnPBhw-25" value="t4" style="text;html=1;align=center;verticalAlign=middle;resizable=0;points=[];autosize=1;strokeColor=none;fillColor=none;" vertex="1" parent="1">
          <mxGeometry x="506" y="320" width="30" height="30" as="geometry" />
        </mxCell>
        <mxCell id="SGzPiQksyXbseqrnPBhw-26" value="freezing water to ice" style="shape=umlFrame;whiteSpace=wrap;html=1;pointerEvents=0;width=140;height=31;" vertex="1" parent="1">
          <mxGeometry x="100" y="99" width="560" height="251" as="geometry" />
        </mxCell>
      </root>
    </mxGraphModel>
  </diagram>
</mxfile>
